# Blender 3.5.0
# www.blender.org
mtllib Ground.mtl
o 立方体
v -1.000000 1.000000 -0.700000
v -1.000000 1.200000 -0.700000
v -1.000000 1.000000 -1.000000
v -1.000000 1.200000 -1.000000
v 1.000000 1.000000 -0.700000
v 1.000000 1.200000 -0.700000
v 1.000000 1.000000 -1.000000
v 1.000000 1.200000 -1.000000
v 1.000000 1.000000 -1.000000
v 1.000000 -1.000000 -1.000000
v 1.000000 1.000000 1.000000
v 1.000000 -1.000000 1.000000
v -1.000000 1.000000 -1.000000
v -1.000000 -1.000000 -1.000000
v -1.000000 1.000000 1.000000
v -1.000000 -1.000000 1.000000
v -1.000000 1.000000 1.000000
v -1.000000 1.200000 1.000000
v -1.000000 1.000000 0.700000
v -1.000000 1.200000 0.700000
v 1.000000 1.000000 1.000000
v 1.000000 1.200000 1.000000
v 1.000000 1.000000 0.700000
v 1.000000 1.200000 0.700000
vn -1.0000 -0.0000 -0.0000
vn -0.0000 -0.0000 -1.0000
vn 1.0000 -0.0000 -0.0000
vn -0.0000 -0.0000 1.0000
vn -0.0000 -1.0000 -0.0000
vn -0.0000 1.0000 -0.0000
vt 0.183673 0.600000
vt 0.244898 0.600000
vt 0.183673 0.660000
vt 0.183673 0.660000
vt 0.244898 0.660000
vt 0.367347 0.660000
vt 0.183673 0.600000
vt 0.122449 0.600000
vt 0.122449 0.660000
vt 0.367347 0.600000
vt 0.306122 0.600000
vt 0.000000 0.600000
vt 0.244898 0.660000
vt 0.000000 0.660000
vt 0.306122 0.660000
vt 0.061224 0.600000
vt 0.244898 0.600000
vt 0.306122 0.600000
vt 0.061224 0.660000
vt 0.816326 0.600000
vt 1.000000 0.000000
vt 0.816326 0.000000
vt 0.816326 1.000000
vt 0.938775 0.600000
vt 0.408163 0.600000
vt 0.938775 0.000000
vt 1.000000 0.400000
vt 0.408163 0.000000
vt 0.000000 0.600000
vt 0.877551 0.600000
vt 0.938775 0.000000
vt 0.877551 0.000000
vt 0.000000 0.000000
vt 0.877551 1.000000
vt 0.877551 0.600000
vt 0.408163 0.600000
vt 0.408163 0.000000
vt 0.877551 0.000000
vt 0.938775 0.400000
vt 0.551020 0.600000
vt 0.367347 0.600000
vt 0.000000 0.660000
vt 0.551020 0.660000
vt 0.367347 0.660000
vt 0.612245 0.660000
vt 0.061224 0.660000
vt 0.489796 0.600000
vt 0.489796 0.660000
vt 0.673469 0.660000
vt 0.428571 0.600000
vt 0.551020 0.600000
vt 0.000000 0.720000
vt 0.551020 0.660000
vt 0.428571 0.660000
vt 0.612245 0.600000
vt 0.612245 0.600000
vt 0.428571 0.600000
vt 0.061224 0.720000
vt 0.673469 0.600000
vt 0.428571 0.660000
vt 0.612245 0.660000
s 0
usemtl Material
f 2/4/1 3/8/1 1/1/1
f 4/9/2 7/16/2 3/8/2
f 8/19/3 5/12/3 7/16/3
f 6/15/4 1/2/4 5/11/4
f 7/17/5 1/3/5 3/7/5
f 4/10/6 6/15/6 8/18/6
f 13/30/6 11/23/6 9/20/6
f 11/24/4 16/38/4 12/26/4
f 15/36/1 14/33/1 16/37/1
f 10/21/5 16/39/5 14/31/5
f 9/20/3 12/28/3 10/22/3
f 13/30/2 10/22/2 14/32/2
f 18/43/1 19/47/1 17/40/1
f 20/48/2 23/57/2 19/47/2
f 24/61/3 21/51/3 23/56/3
f 22/54/4 17/41/4 21/50/4
f 23/58/5 17/42/5 19/46/5
f 20/49/6 22/55/6 24/59/6
f 2/4/1 4/9/1 3/8/1
f 4/9/2 8/19/2 7/16/2
f 8/19/3 6/14/3 5/12/3
f 6/15/4 2/5/4 1/2/4
f 7/17/5 5/13/5 1/3/5
f 4/10/6 2/6/6 6/15/6
f 13/30/6 15/34/6 11/23/6
f 11/24/4 15/35/4 16/38/4
f 15/36/1 13/29/1 14/33/1
f 10/21/5 12/27/5 16/39/5
f 9/20/3 11/25/3 12/28/3
f 13/30/2 9/20/2 10/22/2
f 18/43/1 20/48/1 19/47/1
f 20/48/2 24/60/2 23/57/2
f 24/61/3 22/53/3 21/51/3
f 22/54/4 18/44/4 17/41/4
f 23/58/5 21/52/5 17/42/5
f 20/49/6 18/45/6 22/55/6
